<?xml version="1.0" encoding="utf-8"?>
<svg version="1.1" xmlns:xlink="http://www.w3.org/1999/xlink" width="40px" height="50px" xmlns="http://www.w3.org/2000/svg">
  <defs>
    <filter x="463px" y="30px" width="40px" height="50px" filterUnits="userSpaceOnUse" id="filter1">
      <feOffset dx="1" dy="1" in="SourceAlpha" result="shadowOffsetInner" />
      <feGaussianBlur stdDeviation="2.5" in="shadowOffsetInner" result="shadowGaussian" />
      <feComposite in2="shadowGaussian" operator="atop" in="SourceAlpha" result="shadowComposite" />
      <feColorMatrix type="matrix" values="0 0 0 0 0  0 0 0 0 0  0 0 0 0 0  0 0 0 0.698039215686274 0  " in="shadowComposite" />
    </filter>
    <g id="widget2">
      <path d="M 482 73.0369284683536  C 476.2 63.4073405959099  467.5 57.6295878724437  467.5 48  C 467.5 42.9857142857143  470.4 34.5  482 34.5  C 493.6 34.5  496.5 42.9857142857143  496.5 48  C 496.5 57.6295878724437  487.8 63.4073405959099  482 73.0369284683536  Z " fill-rule="nonzero" fill="#009dd9" stroke="none" />
      <path d="M 482 74  C 476 64  467 58  467 48  C 467 42.8  470 34  482 34  C 494 34  497 42.8  497 48  C 497 58  488 64  482 74  Z M 482 72.0738569367072  C 487.6 62.8146811918198  496 57.2591757448874  496 48  C 496 43.1714285714286  493.2 35  482 35  C 470.8 35  468 43.1714285714286  468 48  C 468 57.2591757448874  476.4 62.8146811918198  482 72.0738569367072  Z " fill-rule="nonzero" fill="#ffffff" stroke="none" />
    </g>
  </defs>
  <g transform="matrix(1 0 0 1 -463 -30 )">
    <use xlink:href="#widget2" filter="url(#filter1)" />
    <use xlink:href="#widget2" />
  </g>
</svg>