<?xml version="1.0" encoding="utf-8"?>
<svg version="1.1" xmlns:xlink="http://www.w3.org/1999/xlink" width="95px" height="95px" xmlns="http://www.w3.org/2000/svg">
  <g transform="matrix(1 0 0 1 -139 -103 )">
    <path d="M 186.5 103  C 213.1 103  234 123.9  234 150.5  C 234 177.1  213.1 198  186.5 198  C 159.9 198  139 177.1  139 150.5  C 139 123.9  159.9 103  186.5 103  Z " fill-rule="nonzero" fill="#ffffff" stroke="none" />
    <path d="M 186.5 103.5  C 212.82 103.5  233.5 124.18  233.5 150.5  C 233.5 176.82  212.82 197.5  186.5 197.5  C 160.18 197.5  139.5 176.82  139.5 150.5  C 139.5 124.18  160.18 103.5  186.5 103.5  Z " stroke-width="1" stroke="#797979" fill="none" />
  </g>
</svg>