<?xml version="1.0" encoding="utf-8"?>
<svg version="1.1" xmlns:xlink="http://www.w3.org/1999/xlink" width="41px" height="41px" xmlns="http://www.w3.org/2000/svg">
  <g transform="matrix(1 0 0 1 -24 -293 )">
    <path d="M 44.5 293  C 55.98 293  65 302.02  65 313.5  C 65 324.98  55.98 334  44.5 334  C 33.02 334  24 324.98  24 313.5  C 24 302.02  33.02 293  44.5 293  Z " fill-rule="nonzero" fill="#ffffff" stroke="none" />
    <path d="M 44.5 293.5  C 55.7 293.5  64.5 302.3  64.5 313.5  C 64.5 324.7  55.7 333.5  44.5 333.5  C 33.3 333.5  24.5 324.7  24.5 313.5  C 24.5 302.3  33.3 293.5  44.5 293.5  Z " stroke-width="1" stroke="#797979" fill="none" />
  </g>
</svg>